<?xml version="1.0" encoding="UTF-8" standalone="no"?>
<!-- Created with Inkscape (http://www.inkscape.org/) -->

<svg
   width="210mm"
   height="297mm"
   viewBox="0 0 210 297"
   version="1.1"
   id="svg5"
   xmlns:inkscape="http://www.inkscape.org/namespaces/inkscape"
   xmlns:sodipodi="http://sodipodi.sourceforge.net/DTD/sodipodi-0.dtd"
   xmlns="http://www.w3.org/2000/svg"
   xmlns:svg="http://www.w3.org/2000/svg">
  <sodipodi:namedview
     id="namedview7"
     pagecolor="#505050"
     bordercolor="#eeeeee"
     borderopacity="1"
     inkscape:showpageshadow="0"
     inkscape:pageopacity="0"
     inkscape:pagecheckerboard="0"
     inkscape:deskcolor="#505050"
     inkscape:document-units="mm"
     showgrid="false" />
  <defs
     id="defs2" />
  <g
     inkscape:label="Layer 1"
     inkscape:groupmode="layer"
     id="layer1">
    <rect
       style="fill:#000000;stroke-width:0.0583372"
       id="rect596"
       width="13.229167"
       height="13.229167"
       x="100.75272"
       y="130.45644" />
    <path
       style="fill:none;stroke:#000000;stroke-width:0.264583px;stroke-linecap:butt;stroke-linejoin:miter;stroke-opacity:1"
       d="m 95.214198,137.07102 v 23.51334 l -21.601451,21.60145 v 46.64308 l -21.903097,21.9031"
       id="path710" />
    <path
       style="fill:none;stroke:#000000;stroke-width:0.264583px;stroke-linecap:butt;stroke-linejoin:miter;stroke-opacity:1"
       d="m 120.16942,137.07102 v 16.4508 l 11.51411,11.51411 v 37.33445 h 24.7949 l 22.92099,22.92099 0.34563,25.53416"
       id="path712" />
    <path
       style="fill:none;stroke:#000000;stroke-width:0.264583px;stroke-linecap:butt;stroke-linejoin:miter;stroke-opacity:1"
       d="m 75.83593,137.07102 v 25.00518 l -20.0763,20.0763 v 40.72049 l -17.899184,17.89919 v 12.60488"
       id="path718" />
    <path
       style="fill:none;stroke:#000000;stroke-width:0.264583px;stroke-linecap:butt;stroke-linejoin:miter;stroke-opacity:1"
       d="m 113.98189,153.42084 v 43.60995 l 18.33018,18.33018 h 15.59011 v 17.26883 h -18.5475 l -9.31755,13.40467 0.25201,7.34259"
       id="path720" />
    <path
       style="fill:none;stroke:#000000;stroke-width:0.264583px;stroke-linecap:butt;stroke-linejoin:miter;stroke-opacity:1"
       d="m 105,153.42084 v 21.57282 l -9.653513,14.83717 v 21.64153 l -13.072091,13.07209 0.887462,26.28108 h 18.962892"
       id="path724" />
    <path
       style="fill:none;stroke:#000000;stroke-width:0.264583px;stroke-linecap:butt;stroke-linejoin:miter;stroke-opacity:1"
       d="m 105.13229,193.94828 v 30.0324 H 133.369 l -28.23671,-0.21758 v 17.8781 H 91.039552"
       id="path730" />
    <path
       style="fill:none;stroke:#000000;stroke-width:0.264583px;stroke-linecap:butt;stroke-linejoin:miter;stroke-opacity:1"
       d="m 179.74504,12.187146 v 16.4508 l -11.51411,11.51411 v 37.33445 h -24.7949 l -22.92099,22.920994 -0.34563,25.53416"
       id="path712-3" />
    <path
       style="fill:none;stroke:#000000;stroke-width:0.264583px;stroke-linecap:butt;stroke-linejoin:miter;stroke-opacity:1"
       d="M 98.055248,126.96763 V 83.357678 l 18.330182,-18.33018 h 15.5901 V 47.758671 h -18.54749 l -9.31755,-13.40467 0.25201,-7.34259"
       id="path720-6" />
    <path
       style="fill:none;stroke:#000000;stroke-width:0.264583px;stroke-linecap:butt;stroke-linejoin:miter;stroke-opacity:1"
       d="M 85.906966,126.96763 V 103.45429 L 64.305515,81.852844 V 35.209761 l -21.903097,-21.9031"
       id="path710-7" />
    <path
       style="fill:none;stroke:#000000;stroke-width:0.264583px;stroke-linecap:butt;stroke-linejoin:miter;stroke-opacity:1"
       d="M 64.041774,126.96763 V 103.45429 L 42.440323,81.852846 V 35.209761 l -21.903097,-21.9031"
       id="path710-7-5" />
    <path
       style="fill:none;stroke:#000000;stroke-width:0.264583px;stroke-linecap:butt;stroke-linejoin:miter;stroke-opacity:1"
       d="m 88.966804,83.93953 -0.13638,-28.973706 9.092531,-9.015571 V 27.006872 9.648533 l 4.475025,-4.4750298"
       id="path894" />
    <path
       style="fill:none;stroke:#000000;stroke-width:0.264583px;stroke-linecap:butt;stroke-linejoin:miter;stroke-opacity:1"
       d="M 86.039255,87.825804 73.704372,66.46116 73.481297,38.19853 88.69787,25.283154 88.338005,12.187146"
       id="path896" />
    <path
       style="fill:none;stroke:#000000;stroke-width:0.264583px;stroke-linecap:butt;stroke-linejoin:miter;stroke-opacity:1"
       d="m 88.966804,83.93953 -2.927549,3.886274"
       id="path900" />
    <path
       style="fill:none;stroke:#000000;stroke-width:0.264583px;stroke-linecap:butt;stroke-linejoin:miter;stroke-opacity:1"
       d="m 86.039255,87.825804 5.000297,8.169187 0.458065,30.972639"
       id="path902" />
    <path
       style="fill:none;stroke:#000000;stroke-width:0.264583px;stroke-linecap:butt;stroke-linejoin:miter;stroke-opacity:1"
       d="m 169.91329,22.077734 -54.8979,0.204048 v 13.868985 h 38.41482 v 30.059531 h -10.40018 l -22.9929,20.786823 h -10.36262 v 37.510389"
       id="path904" />
    <path
       style="fill:none;stroke:#000000;stroke-width:0.264583px;stroke-linecap:butt;stroke-linejoin:miter;stroke-opacity:1"
       d="m 121.78202,56.741869 -23.859065,0.09474"
       id="path906" />
    <path
       style="fill:none;stroke:#000000;stroke-width:0.264583px;stroke-linecap:butt;stroke-linejoin:miter;stroke-opacity:1"
       d="m 142.44391,43.061315 -0.20196,13.548262"
       id="path908" />
    <path
       style="fill:none;stroke:#000000;stroke-width:0.264583px;stroke-linecap:butt;stroke-linejoin:miter;stroke-opacity:1"
       d="m 75.968221,107.36316 -0.372776,23.09328 H 69.357419 L 54.87749,144.93636 H 23.451932"
       id="path910" />
  </g>
</svg>
